<svg width="142" height="22" viewBox="0 0 142 22" fill="none" xmlns="http://www.w3.org/2000/svg">
<path d="M11.0712 0.259534C11.1097 0.173662 11.2316 0.173661 11.2702 0.259534L14.1708 6.72236C14.1867 6.75769 14.2201 6.78197 14.2586 6.78613L21.3014 7.54768C21.395 7.5578 21.4327 7.67375 21.3629 7.73694L16.1128 12.4927C16.0841 12.5187 16.0713 12.558 16.0792 12.5959L17.5313 19.5294C17.5506 19.6215 17.452 19.6932 17.3703 19.6464L11.2249 16.1228C11.1913 16.1035 11.15 16.1035 11.1164 16.1228L4.971 19.6464C4.88935 19.6932 4.79072 19.6215 4.81001 19.5294L6.2621 12.5959C6.27004 12.558 6.25728 12.5187 6.22857 12.4927L0.978406 7.73694C0.908646 7.67375 0.94632 7.5578 1.0399 7.54768L8.08276 6.78613C8.12126 6.78197 8.15467 6.75769 8.17053 6.72236L11.0712 0.259534Z" fill="#E1E60A"/>
<path d="M40.8151 0.259534C40.8537 0.173662 40.9756 0.173661 41.0141 0.259534L43.9148 6.72236C43.9306 6.75769 43.964 6.78197 44.0026 6.78613L51.0454 7.54768C51.139 7.5578 51.1767 7.67375 51.1069 7.73694L45.8567 12.4927C45.828 12.5187 45.8153 12.558 45.8232 12.5959L47.2753 19.5294C47.2946 19.6215 47.196 19.6932 47.1143 19.6464L40.9689 16.1228C40.9353 16.1035 40.894 16.1035 40.8604 16.1228L34.715 19.6464C34.6333 19.6932 34.5347 19.6215 34.554 19.5294L36.0061 12.5959C36.014 12.558 36.0012 12.5187 35.9725 12.4927L30.7224 7.73694C30.6526 7.67375 30.6903 7.5578 30.7839 7.54768L37.8267 6.78613C37.8652 6.78197 37.8986 6.75769 37.9145 6.72236L40.8151 0.259534Z" fill="#E1E60A"/>
<path d="M70.5592 0.259534C70.5977 0.173662 70.7196 0.173661 70.7582 0.259534L73.6588 6.72236C73.6747 6.75769 73.7081 6.78197 73.7466 6.78613L80.7894 7.54768C80.883 7.5578 80.9207 7.67375 80.8509 7.73694L75.6008 12.4927C75.5721 12.5187 75.5593 12.558 75.5672 12.5959L77.0193 19.5294C77.0386 19.6215 76.94 19.6932 76.8583 19.6464L70.7129 16.1228C70.6793 16.1035 70.638 16.1035 70.6044 16.1228L64.459 19.6464C64.3774 19.6932 64.2787 19.6215 64.298 19.5294L65.7501 12.5959C65.758 12.558 65.7453 12.5187 65.7166 12.4927L60.4664 7.73694C60.3967 7.67375 60.4343 7.5578 60.5279 7.54768L67.5708 6.78613C67.6093 6.78197 67.6427 6.75769 67.6585 6.72236L70.5592 0.259534Z" fill="#E1E60A"/>
<path d="M100.303 0.259534C100.342 0.173662 100.464 0.173661 100.502 0.259534L103.403 6.72236C103.419 6.75769 103.452 6.78197 103.491 6.78613L110.533 7.54768C110.627 7.5578 110.665 7.67375 110.595 7.73694L105.345 12.4927C105.316 12.5187 105.303 12.558 105.311 12.5959L106.763 19.5294C106.783 19.6215 106.684 19.6932 106.602 19.6464L100.457 16.1228C100.423 16.1035 100.382 16.1035 100.348 16.1228L94.203 19.6464C94.1214 19.6932 94.0227 19.6215 94.042 19.5294L95.4941 12.5959C95.5021 12.558 95.4893 12.5187 95.4606 12.4927L90.2104 7.73694C90.1407 7.67375 90.1783 7.5578 90.2719 7.54768L97.3148 6.78613C97.3533 6.78197 97.3867 6.75769 97.4026 6.72236L100.303 0.259534Z" fill="#E1E60A"/>
<path d="M130.047 0.259534C130.086 0.173662 130.208 0.173661 130.246 0.259534L133.147 6.72236C133.163 6.75769 133.196 6.78197 133.235 6.78613L140.277 7.54768C140.371 7.5578 140.409 7.67375 140.339 7.73694L135.089 12.4927C135.06 12.5187 135.047 12.558 135.055 12.5959L136.507 19.5294C136.527 19.6215 136.428 19.6932 136.346 19.6464L130.201 16.1228C130.167 16.1035 130.126 16.1035 130.092 16.1228L123.947 19.6464C123.865 19.6932 123.767 19.6215 123.786 19.5294L125.238 12.5959C125.246 12.558 125.233 12.5187 125.205 12.4927L119.954 7.73694C119.885 7.67375 119.922 7.5578 120.016 7.54768L127.059 6.78613C127.097 6.78197 127.131 6.75769 127.147 6.72236L130.047 0.259534Z" fill="#E1E60A"/>
</svg>
